REM DIRINDEX 1\2,1\3,1\4,1\5,1\6
REM DIRNAME folder01,folder02,folder03,folder04,folder05,folder06
TITLE ""
FILE "Disc4Track11.mp3" MP3
  TRACK 01 AUDIO
    TITLE "3:cjc030_06457"
    INDEX 01 00:00:00
  TRACK 02 AUDIO
    TITLE "0:"
    INDEX 01 00:01:13
  TRACK 03 AUDIO
    TITLE "4:cjc030_06458"
    INDEX 01 00:01:22
  TRACK 04 AUDIO
    TITLE "0:"
    INDEX 01 00:03:15
  TRACK 05 AUDIO
    TITLE "5:cjc030_06459"
    INDEX 01 00:03:23
  TRACK 06 AUDIO
    TITLE "0:"
    INDEX 01 00:04:40
  TRACK 07 AUDIO
    TITLE "6:cjc030_06460"
    INDEX 01 00:04:52
  TRACK 08 AUDIO
    TITLE "0:"
    INDEX 01 00:08:24
  TRACK 09 AUDIO
    TITLE "3:cjc030_06461"
    INDEX 01 00:08:72
  TRACK 10 AUDIO
    TITLE "0:"
    INDEX 01 00:10:04
  TRACK 11 AUDIO
    TITLE "4:cjc030_06462"
    INDEX 01 00:10:14
  TRACK 12 AUDIO
    TITLE "0:"
    INDEX 01 00:12:28
  TRACK 13 AUDIO
    TITLE "5:cjc030_06463"
    INDEX 01 00:12:38
  TRACK 14 AUDIO
    TITLE "0:"
    INDEX 01 00:13:45
  TRACK 15 AUDIO
    TITLE "6:cjc030_06464"
    INDEX 01 00:13:59
  TRACK 16 AUDIO
    TITLE "0:"
    INDEX 01 00:19:15
  TRACK 17 AUDIO
    TITLE "3:cjc030_06465"
    INDEX 01 00:19:60
  TRACK 18 AUDIO
    TITLE "0:"
    INDEX 01 00:21:00
  TRACK 19 AUDIO
    TITLE "4:cjc030_06466"
    INDEX 01 00:21:04
  TRACK 20 AUDIO
    TITLE "0:"
    INDEX 01 00:23:06
  TRACK 21 AUDIO
    TITLE "5:cjc030_06467"
    INDEX 01 00:23:16
  TRACK 22 AUDIO
    TITLE "0:"
    INDEX 01 00:24:29
  TRACK 23 AUDIO
    TITLE "3:cjc030_06468"
    INDEX 01 00:25:03
  TRACK 24 AUDIO
    TITLE "0:"
    INDEX 01 00:26:24
  TRACK 25 AUDIO
    TITLE "4:cjc030_06469"
    INDEX 01 00:26:34
  TRACK 26 AUDIO
    TITLE "0:"
    INDEX 01 00:30:03
  TRACK 27 AUDIO
    TITLE "5:cjc030_06470"
    INDEX 01 00:30:10
  TRACK 28 AUDIO
    TITLE "0:"
    INDEX 01 00:31:35
  TRACK 29 AUDIO
    TITLE "6:cjc030_06471"
    INDEX 01 00:31:47
  TRACK 30 AUDIO
    TITLE "0:"
    INDEX 01 00:36:54
  TRACK 31 AUDIO
    TITLE "3:cjc030_06472"
    INDEX 01 00:37:28
  TRACK 32 AUDIO
    TITLE "0:"
    INDEX 01 00:38:39
  TRACK 33 AUDIO
    TITLE "4:cjc030_06473"
    INDEX 01 00:38:47
  TRACK 34 AUDIO
    TITLE "0:"
    INDEX 01 00:40:68
  TRACK 35 AUDIO
    TITLE "5:cjc030_06474"
    INDEX 01 00:41:02
  TRACK 36 AUDIO
    TITLE "0:"
    INDEX 01 00:42:14
  TRACK 37 AUDIO
    TITLE "6:cjc030_06475"
    INDEX 01 00:42:25
  TRACK 38 AUDIO
    TITLE "0:"
    INDEX 01 00:44:63
  TRACK 39 AUDIO
    TITLE "3:cjc030_06476"
    INDEX 01 00:45:37
  TRACK 40 AUDIO
    TITLE "0:"
    INDEX 01 00:46:58
  TRACK 41 AUDIO
    TITLE "4:cjc030_06477"
    INDEX 01 00:46:66
  TRACK 42 AUDIO
    TITLE "0:"
    INDEX 01 00:47:52
  TRACK 43 AUDIO
    TITLE "5:cjc030_06478"
    INDEX 01 00:47:58
  TRACK 44 AUDIO
    TITLE "0:"
    INDEX 01 00:49:04
  TRACK 45 AUDIO
    TITLE "3:cjc030_06479"
    INDEX 01 00:49:57
  TRACK 46 AUDIO
    TITLE "0:"
    INDEX 01 00:51:01
  TRACK 47 AUDIO
    TITLE "4:cjc030_06480"
    INDEX 01 00:51:07
  TRACK 48 AUDIO
    TITLE "0:"
    INDEX 01 00:53:43
  TRACK 49 AUDIO
    TITLE "5:cjc030_06481"
    INDEX 01 00:53:53
  TRACK 50 AUDIO
    TITLE "0:"
    INDEX 01 00:54:70
  TRACK 51 AUDIO
    TITLE "6:cjc030_06482"
    INDEX 01 00:55:08
  TRACK 52 AUDIO
    TITLE "0:"
    INDEX 01 00:59:45
  TRACK 53 AUDIO
    TITLE "3:cjc030_06483"
    INDEX 01 01:00:15
  TRACK 54 AUDIO
    TITLE "0:"
    INDEX 01 01:01:48
  TRACK 55 AUDIO
    TITLE "4:cjc030_06484"
    INDEX 01 01:01:56
  TRACK 56 AUDIO
    TITLE "0:"
    INDEX 01 01:04:09
  TRACK 57 AUDIO
    TITLE "5:cjc030_06485"
    INDEX 01 01:04:15
  TRACK 58 AUDIO
    TITLE "0:"
    INDEX 01 01:05:50
  TRACK 59 AUDIO
    TITLE "6:cjc030_06486"
    INDEX 01 01:05:62
  TRACK 60 AUDIO
    TITLE "0:"
    INDEX 01 01:09:69
  TRACK 61 AUDIO
    TITLE "3:cjc030_06487"
    INDEX 01 01:10:43
  TRACK 62 AUDIO
    TITLE "0:"
    INDEX 01 01:12:09
  TRACK 63 AUDIO
    TITLE "4:cjc030_06488"
    INDEX 01 01:12:17
  TRACK 64 AUDIO
    TITLE "0:"
    INDEX 01 01:13:65
  TRACK 65 AUDIO
    TITLE "5:cjc030_06489"
    INDEX 01 01:13:73
  TRACK 66 AUDIO
    TITLE "0:"
    INDEX 01 01:15:39
  TRACK 67 AUDIO
    TITLE "6:cjc030_06490"
    INDEX 01 01:15:50
  TRACK 68 AUDIO
    TITLE "0:"
    INDEX 01 01:17:39
